<svg width="190" height="62" viewBox="0 0 190 62" fill="none" xmlns="http://www.w3.org/2000/svg">
<rect x="0.499939" y="0.691406" width="189" height="61" rx="10" fill="#F8F8F8"/>
<path d="M73.9252 45.1935L72.1978 40.7548H65.1536L63.471 45.1935H61.1155L67.4418 29.2994H69.9769L76.3032 45.1935H73.9252ZM68.6533 31.586L65.9388 38.7148H71.4126L68.6533 31.586ZM80.305 49.4529H78.2187V34.4106H80.2602V36.0919C80.5742 35.524 81.0454 35.0607 81.6735 34.7021C82.3017 34.3434 83.0345 34.164 83.872 34.164C85.4274 34.164 86.6389 34.6946 87.5063 35.7557C88.3887 36.8168 88.8299 38.1618 88.8299 39.7909C88.8299 41.4348 88.3738 42.7948 87.4615 43.8709C86.5641 44.9469 85.3452 45.4849 83.8047 45.4849C83.0121 45.4849 82.3091 45.3206 81.6959 44.9918C81.0827 44.663 80.6191 44.2445 80.305 43.7364V49.4529ZM86.6763 39.7909C86.6763 38.6999 86.3846 37.8032 85.8013 37.1007C85.233 36.3834 84.4628 36.0247 83.4906 36.0247C82.5335 36.0247 81.7558 36.3834 81.1575 37.1007C80.5742 37.8032 80.2826 38.6999 80.2826 39.7909C80.2826 40.9117 80.5742 41.8309 81.1575 42.5482C81.7558 43.2507 82.5335 43.6019 83.4906 43.6019C84.4478 43.6019 85.2181 43.2507 85.8013 42.5482C86.3846 41.8309 86.6763 40.9117 86.6763 39.7909ZM93.6033 49.4529H91.517V34.4106H93.5585V36.0919C93.8725 35.524 94.3437 35.0607 94.9718 34.7021C95.6 34.3434 96.3328 34.164 97.1703 34.164C98.7257 34.164 99.9372 34.6946 100.805 35.7557C101.687 36.8168 102.128 38.1618 102.128 39.7909C102.128 41.4348 101.672 42.7948 100.76 43.8709C99.8624 44.9469 98.6435 45.4849 97.103 45.4849C96.3104 45.4849 95.6074 45.3206 94.9942 44.9918C94.3811 44.663 93.9174 44.2445 93.6033 43.7364V49.4529ZM99.9746 39.7909C99.9746 38.6999 99.6829 37.8032 99.0997 37.1007C98.5313 36.3834 97.7611 36.0247 96.789 36.0247C95.8318 36.0247 95.0541 36.3834 94.4558 37.1007C93.8725 37.8032 93.5809 38.6999 93.5809 39.7909C93.5809 40.9117 93.8725 41.8309 94.4558 42.5482C95.0541 43.2507 95.8318 43.6019 96.789 43.6019C97.7461 43.6019 98.5164 43.2507 99.0997 42.5482C99.6829 41.8309 99.9746 40.9117 99.9746 39.7909ZM120.789 32.9086L118.814 33.6036C118.71 32.9161 118.373 32.2959 117.805 31.7429C117.237 31.175 116.451 30.8911 115.449 30.8911C114.567 30.8911 113.834 31.1451 113.251 31.6533C112.667 32.1614 112.375 32.7891 112.375 33.5363C112.375 34.1192 112.547 34.6124 112.891 35.0159C113.251 35.4194 113.759 35.6959 114.417 35.8454L116.795 36.361C118.112 36.6449 119.129 37.1829 119.846 37.975C120.564 38.7522 120.923 39.7012 120.923 40.8221C120.923 42.1074 120.415 43.2133 119.398 44.1399C118.381 45.0665 117.057 45.5298 115.427 45.5298C113.647 45.5298 112.248 45.0665 111.231 44.1399C110.229 43.1983 109.646 42.0849 109.481 40.7997L111.59 40.1271C111.68 41.0836 112.054 41.8906 112.712 42.5482C113.371 43.2058 114.268 43.5346 115.405 43.5346C116.451 43.5346 117.259 43.2955 117.827 42.8172C118.396 42.339 118.68 41.7337 118.68 41.0014C118.68 40.4036 118.478 39.888 118.074 39.4546C117.67 39.0062 117.08 38.6999 116.302 38.5355L114.036 38.0423C112.854 37.7882 111.912 37.2876 111.209 36.5403C110.506 35.793 110.154 34.844 110.154 33.6933C110.154 32.4379 110.663 31.3394 111.68 30.3979C112.712 29.4414 113.954 28.9631 115.405 28.9631C117.035 28.9631 118.284 29.3592 119.151 30.1513C120.018 30.9434 120.564 31.8625 120.789 32.9086ZM126.33 31.0031V34.4106H128.663V36.3161H126.33V41.9205C126.33 42.4287 126.442 42.8023 126.666 43.0414C126.906 43.2805 127.295 43.4001 127.833 43.4001C128.147 43.4001 128.424 43.3702 128.663 43.3104V45.1038C128.304 45.2384 127.825 45.3056 127.227 45.3056C126.3 45.3056 125.567 45.0366 125.029 44.4986C124.49 43.9605 124.221 43.2058 124.221 42.2344V36.3161H122.157V34.4106H122.74C123.294 34.4106 123.705 34.2612 123.974 33.9623C124.258 33.6484 124.401 33.2449 124.401 32.7517V31.0031H126.33ZM133.589 42.6379C134.247 43.3104 135.047 43.6467 135.989 43.6467C136.932 43.6467 137.724 43.3104 138.367 42.6379C139.025 41.9504 139.354 41.0014 139.354 39.7909C139.354 38.5953 139.025 37.6612 138.367 36.9887C137.724 36.3012 136.932 35.9574 135.989 35.9574C135.047 35.9574 134.247 36.3012 133.589 36.9887C132.946 37.6612 132.624 38.5953 132.624 39.7909C132.624 41.0014 132.946 41.9504 133.589 42.6379ZM132.018 35.7108C133.065 34.6199 134.389 34.0744 135.989 34.0744C137.59 34.0744 138.906 34.6199 139.938 35.7108C140.985 36.7869 141.508 38.1469 141.508 39.7909C141.508 41.4498 140.992 42.8247 139.96 43.9157C138.928 44.9918 137.605 45.5298 135.989 45.5298C134.374 45.5298 133.05 44.9918 132.018 43.9157C130.987 42.8247 130.471 41.4498 130.471 39.7909C130.471 38.1469 130.987 36.7869 132.018 35.7108ZM150.196 34.2985V36.5403C149.882 36.4955 149.576 36.473 149.277 36.473C147.302 36.473 146.315 37.579 146.315 39.7909V45.1935H144.207V34.4106H146.27V36.2937C146.929 34.9188 148.005 34.2313 149.501 34.2313C149.74 34.2313 149.972 34.2537 150.196 34.2985ZM153.702 38.6924H159.603C159.573 37.8854 159.303 37.2278 158.795 36.7196C158.286 36.1966 157.569 35.935 156.641 35.935C155.804 35.935 155.116 36.2115 154.577 36.7645C154.039 37.3025 153.747 37.9451 153.702 38.6924ZM159.917 41.4946L161.734 42.1223C161.42 43.1236 160.836 43.9456 159.984 44.5882C159.132 45.2159 158.1 45.5298 156.888 45.5298C155.378 45.5298 154.091 45.0142 153.029 43.983C151.983 42.9368 151.459 41.532 151.459 39.7684C151.459 38.1245 151.968 36.7645 152.985 35.6884C154.002 34.6124 155.213 34.0744 156.619 34.0744C158.249 34.0744 159.52 34.59 160.433 35.6212C161.345 36.6374 161.801 38.0049 161.801 39.7236C161.801 39.9926 161.786 40.2168 161.756 40.3961H153.635C153.65 41.3526 153.964 42.1372 154.577 42.75C155.206 43.3627 155.976 43.6691 156.888 43.6691C158.429 43.6691 159.438 42.9443 159.917 41.4946Z" fill="#302F2F"/>
<path opacity="0.6" d="M62.7627 19.5474V15.6787H63.7113C64.7027 15.6787 65.5231 16.3022 65.5231 17.6173C65.5231 18.9325 64.6941 19.5474 63.7028 19.5474H62.7627ZM63.7455 20.6405C65.4718 20.6405 66.7452 19.5303 66.7452 17.6173C66.7452 15.7044 65.4804 14.5856 63.754 14.5856H61.5833V20.6405H63.7455ZM69.6991 17.6088C69.6991 16.2424 70.6563 15.5933 71.5879 15.5933C72.528 15.5933 73.4851 16.2424 73.4851 17.6088C73.4851 18.9752 72.528 19.6243 71.5879 19.6243C70.6563 19.6243 69.6991 18.9752 69.6991 17.6088ZM68.477 17.6173C68.477 19.5645 69.947 20.7686 71.5879 20.7686C73.2373 20.7686 74.7073 19.5645 74.7073 17.6173C74.7073 15.6617 73.2373 14.4575 71.5879 14.4575C69.947 14.4575 68.477 15.6617 68.477 17.6173ZM82.281 18.7702L80.9306 14.5856H79.7085L78.3668 18.7532L77.2558 14.5856H76.008L77.6916 20.6405H78.9223L80.3068 16.3278L81.6913 20.6405H82.9048L84.5799 14.5856H83.3749L82.281 18.7702ZM91.6164 20.6405V14.5856H90.437V18.5909L87.9158 14.5856H86.4459V20.6405H87.6253V16.3449L90.3772 20.6405H91.6164ZM97.9458 20.6405V19.5132H95.2452V14.5856H94.0658V20.6405H97.9458ZM100.579 17.6088C100.579 16.2424 101.536 15.5933 102.468 15.5933C103.408 15.5933 104.365 16.2424 104.365 17.6088C104.365 18.9752 103.408 19.6243 102.468 19.6243C101.536 19.6243 100.579 18.9752 100.579 17.6088ZM99.357 17.6173C99.357 19.5645 100.827 20.7686 102.468 20.7686C104.117 20.7686 105.587 19.5645 105.587 17.6173C105.587 15.6617 104.117 14.4575 102.468 14.4575C100.827 14.4575 99.357 15.6617 99.357 17.6173ZM111.497 20.6405H112.779L110.471 14.5856H109.104L106.779 20.6405H108.027L108.531 19.257H110.992L111.497 20.6405ZM109.762 15.8922L110.599 18.181H108.924L109.762 15.8922ZM115.801 19.5474V15.6787H116.749C117.741 15.6787 118.561 16.3022 118.561 17.6173C118.561 18.9325 117.732 19.5474 116.741 19.5474H115.801ZM116.784 20.6405C118.51 20.6405 119.783 19.5303 119.783 17.6173C119.783 15.7044 118.519 14.5856 116.792 14.5856H114.621V20.6405H116.784ZM125.917 17.6088C125.917 16.2424 126.875 15.5933 127.806 15.5933C128.746 15.5933 129.703 16.2424 129.703 17.6088C129.703 18.9752 128.746 19.6243 127.806 19.6243C126.875 19.6243 125.917 18.9752 125.917 17.6088ZM124.695 17.6173C124.695 19.5645 126.165 20.7686 127.806 20.7686C129.456 20.7686 130.926 19.5645 130.926 17.6173C130.926 15.6617 129.456 14.4575 127.806 14.4575C126.165 14.4575 124.695 15.6617 124.695 17.6173ZM138.187 20.6405V14.5856H137.007V18.5909L134.486 14.5856H133.016V20.6405H134.196V16.3449L136.947 20.6405H138.187ZM148.278 15.7044V14.5856H143.261V15.7044H145.175V20.6405H146.363V15.7044H148.278ZM155.184 20.6405V14.5856H153.996V17.0195H151.355V14.5856H150.176V20.6405H151.355V18.1297H153.996V20.6405H155.184ZM161.431 20.6405V19.5303H158.816V18.1297H161.184V17.0793H158.816V15.6958H161.431V14.5856H157.637V20.6405H161.431Z" fill="#302F2F"/>
<path d="M46.8685 38.8066C46.1748 40.3418 45.8436 41.027 44.9503 42.3834C43.7058 44.2776 41.9497 46.6368 39.7737 46.6568C37.8409 46.6748 37.3441 45.3998 34.7201 45.4151C32.0962 45.4305 31.5493 46.6795 29.6164 46.6615C27.4404 46.6421 25.7779 44.5117 24.532 42.6162C21.0494 37.3187 20.6855 31.1025 22.8334 27.798C24.3598 25.4481 26.7688 24.075 29.0329 24.075C31.3383 24.075 32.7879 25.338 34.6948 25.338C36.5442 25.338 37.6706 24.073 40.3366 24.073C42.3517 24.073 44.4869 25.1692 46.0085 27.0633C41.023 29.7928 41.8336 36.9044 46.8685 38.8066Z" fill="#302F2F"/>
<path d="M38.5953 20.7577C39.564 19.5154 40.2984 17.7627 40.0314 15.97C38.449 16.0781 36.5995 17.0842 35.5193 18.3952C34.5385 19.5849 33.7285 21.3496 34.0436 23.0648C35.7697 23.119 37.557 22.0881 38.5953 20.7577Z" fill="#302F2F"/>
</svg>
