<svg width="203" height="62" viewBox="0 0 203 62" fill="none" xmlns="http://www.w3.org/2000/svg">
<rect x="0.499939" y="0.691406" width="202" height="61" rx="10" fill="#F8F8F8"/>
<path d="M79.2838 45.1933H77.5109L77.3089 42.9515C76.92 43.6539 76.2841 44.2592 75.4014 44.7673C74.5187 45.2755 73.4565 45.5295 72.2147 45.5295C70.8533 45.5295 69.5966 45.2232 68.4446 44.6104C67.2926 43.9827 66.3426 43.0262 65.5945 41.741C64.8614 40.4557 64.4949 38.9537 64.4949 37.235C64.4949 35.5163 64.8839 34.0143 65.6619 32.7291C66.4398 31.4438 67.4123 30.4948 68.5792 29.882C69.7611 29.2693 71.0254 28.9629 72.3718 28.9629C74.0774 28.9629 75.5585 29.4038 76.8152 30.2855C78.0869 31.1523 78.9546 32.3106 79.4184 33.7603L77.4211 34.6121C77.0621 33.4614 76.4337 32.5721 75.5361 31.9444C74.6534 31.3018 73.5986 30.9805 72.3718 30.9805C70.8309 30.9805 69.5068 31.526 68.3997 32.617C67.2926 33.708 66.739 35.2473 66.739 37.235C66.739 39.2376 67.2776 40.7919 68.3548 41.8979C69.447 42.9889 70.7561 43.5344 72.2821 43.5344C73.1199 43.5344 73.8604 43.3999 74.5038 43.1308C75.162 42.8618 75.6707 42.5106 76.0298 42.0772C76.4038 41.6289 76.6806 41.1805 76.8601 40.7322C77.0546 40.2838 77.1668 39.8355 77.1967 39.3871H71.6762V37.4143H79.2838V45.1933ZM84.6618 42.6377C85.3201 43.3102 86.1205 43.6465 87.063 43.6465C88.0056 43.6465 88.7985 43.3102 89.4418 42.6377C90.1001 41.9502 90.4293 41.0012 90.4293 39.7906C90.4293 38.595 90.1001 37.6609 89.4418 36.9884C88.7985 36.3009 88.0056 35.9572 87.063 35.9572C86.1205 35.9572 85.3201 36.3009 84.6618 36.9884C84.0185 37.6609 83.6968 38.595 83.6968 39.7906C83.6968 41.0012 84.0185 41.9502 84.6618 42.6377ZM83.0909 35.7106C84.1382 34.6196 85.4622 34.0741 87.063 34.0741C88.6639 34.0741 89.9804 34.6196 91.0127 35.7106C92.06 36.7867 92.5836 38.1467 92.5836 39.7906C92.5836 41.4495 92.0675 42.8245 91.0352 43.9155C90.0029 44.9915 88.6788 45.5295 87.063 45.5295C85.4473 45.5295 84.1232 44.9915 83.0909 43.9155C82.0586 42.8245 81.5425 41.4495 81.5425 39.7906C81.5425 38.1467 82.0586 36.7867 83.0909 35.7106ZM97.5043 42.6377C98.1626 43.3102 98.963 43.6465 99.9055 43.6465C100.848 43.6465 101.641 43.3102 102.284 42.6377C102.943 41.9502 103.272 41.0012 103.272 39.7906C103.272 38.595 102.943 37.6609 102.284 36.9884C101.641 36.3009 100.848 35.9572 99.9055 35.9572C98.963 35.9572 98.1626 36.3009 97.5043 36.9884C96.861 37.6609 96.5393 38.595 96.5393 39.7906C96.5393 41.0012 96.861 41.9502 97.5043 42.6377ZM95.9334 35.7106C96.9806 34.6196 98.3047 34.0741 99.9055 34.0741C101.506 34.0741 102.823 34.6196 103.855 35.7106C104.902 36.7867 105.426 38.1467 105.426 39.7906C105.426 41.4495 104.91 42.8245 103.878 43.9155C102.845 44.9915 101.521 45.5295 99.9055 45.5295C98.2897 45.5295 96.9657 44.9915 95.9334 43.9155C94.9011 42.8245 94.3849 41.4495 94.3849 39.7906C94.3849 38.1467 94.9011 36.7867 95.9334 35.7106ZM107.34 45.7761L109.382 45.3054C109.457 46.0676 109.763 46.6953 110.302 47.1884C110.84 47.6966 111.514 47.9506 112.322 47.9506C114.521 47.9506 115.62 46.7849 115.62 44.4535V42.9067C115.351 43.4298 114.925 43.8557 114.341 44.1845C113.773 44.5133 113.1 44.6777 112.322 44.6777C110.885 44.6777 109.696 44.1919 108.753 43.2205C107.826 42.2341 107.362 40.9788 107.362 39.4544C107.362 37.9748 107.826 36.7343 108.753 35.733C109.681 34.7168 110.87 34.2086 112.322 34.2086C113.967 34.2086 115.074 34.7765 115.643 35.9124V34.4104H117.73V44.3862C117.73 45.1036 117.633 45.7687 117.438 46.3814C117.259 47.0091 116.967 47.5845 116.563 48.1076C116.159 48.6306 115.591 49.0416 114.857 49.3405C114.139 49.6394 113.294 49.7889 112.322 49.7889C110.99 49.7889 109.861 49.4078 108.933 48.6456C108.005 47.8983 107.474 46.9419 107.34 45.7761ZM112.636 42.9067C113.548 42.9067 114.289 42.5928 114.857 41.9651C115.426 41.3225 115.71 40.4856 115.71 39.4544C115.71 38.4231 115.426 37.5937 114.857 36.966C114.289 36.3234 113.548 36.002 112.636 36.002C111.708 36.002 110.953 36.3159 110.369 36.9436C109.801 37.5713 109.516 38.4082 109.516 39.4544C109.516 40.5155 109.793 41.3599 110.347 41.9875C110.915 42.6003 111.678 42.9067 112.636 42.9067ZM123.208 45.1933H121.099V28.9629H123.208V45.1933ZM128.165 38.6922H134.068C134.038 37.8851 133.768 37.2275 133.26 36.7194C132.751 36.1963 132.033 35.9348 131.105 35.9348C130.267 35.9348 129.579 36.2113 129.041 36.7642C128.502 37.3023 128.21 37.9449 128.165 38.6922ZM134.382 41.4944L136.199 42.1221C135.885 43.1234 135.302 43.9454 134.449 44.588C133.596 45.2157 132.564 45.5295 131.352 45.5295C129.841 45.5295 128.554 45.0139 127.492 43.9827C126.445 42.9366 125.921 41.5317 125.921 39.7682C125.921 38.1242 126.43 36.7642 127.447 35.6882C128.465 34.6121 129.676 34.0741 131.083 34.0741C132.714 34.0741 133.985 34.5897 134.898 35.6209C135.81 36.6372 136.267 38.0047 136.267 39.7234C136.267 39.9924 136.252 40.2166 136.222 40.3959H128.098C128.113 41.3524 128.427 42.137 129.041 42.7497C129.669 43.3625 130.439 43.6689 131.352 43.6689C132.893 43.6689 133.903 42.944 134.382 41.4944ZM146.994 36.7194H150.18C151.123 36.7194 151.871 36.4803 152.425 36.002C152.978 35.5088 153.255 34.8513 153.255 34.0293C153.255 33.1924 152.978 32.5273 152.425 32.0341C151.871 31.526 151.123 31.2719 150.18 31.2719H146.994V36.7194ZM150.584 38.6922H146.994V45.1933H144.794V29.2992H150.584C152.036 29.2992 153.217 29.7475 154.13 30.6442C155.043 31.5409 155.499 32.6618 155.499 34.0069C155.499 35.3669 155.043 36.4878 154.13 37.3695C153.217 38.2513 152.036 38.6922 150.584 38.6922ZM159.851 45.1933H157.741V28.9629H159.851V45.1933ZM162.766 42.3014C162.766 41.3748 163.065 40.635 163.663 40.082C164.262 39.5141 165.055 39.1629 166.042 39.0284L168.96 38.6025C169.513 38.5278 169.79 38.2587 169.79 37.7954C169.79 37.2275 169.595 36.7642 169.206 36.4056C168.817 36.0469 168.234 35.8675 167.456 35.8675C166.738 35.8675 166.169 36.0693 165.75 36.4728C165.332 36.8614 165.085 37.3845 165.01 38.042L162.99 37.5713C163.095 36.5401 163.566 35.7031 164.404 35.0605C165.242 34.4029 166.244 34.0741 167.411 34.0741C168.937 34.0741 170.067 34.4477 170.8 35.195C171.533 35.9273 171.899 36.8688 171.899 38.0196V43.4223C171.899 44.0649 171.944 44.6552 172.034 45.1933H169.969C169.895 44.7449 169.857 44.2592 169.857 43.7361C169.558 44.2144 169.117 44.6328 168.533 44.9915C167.965 45.3502 167.247 45.5295 166.379 45.5295C165.317 45.5295 164.449 45.2157 163.776 44.588C163.102 43.9454 162.766 43.1832 162.766 42.3014ZM166.671 43.7585C167.613 43.7585 168.369 43.5045 168.937 42.9963C169.506 42.4882 169.79 41.6812 169.79 40.5752V40.082L166.491 40.5752C166.012 40.65 165.631 40.8218 165.347 41.0908C165.062 41.3599 164.92 41.726 164.92 42.1893C164.92 42.6078 165.077 42.9739 165.391 43.2878C165.721 43.6016 166.147 43.7585 166.671 43.7585ZM177.66 49.6992H175.349L178.042 44.0051L173.397 34.4104H175.82L179.186 41.853L182.418 34.4104H184.685L177.66 49.6992Z" fill="#302F2F"/>
<path opacity="0.6" d="M70.7346 20.6405V17.4892H67.7082V18.514H69.6232C69.5548 18.9411 69.1188 19.6926 67.9989 19.6926C66.9815 19.6926 66.0839 18.9838 66.0839 17.6173C66.0839 16.1826 67.0756 15.5592 67.9903 15.5592C68.9735 15.5592 69.4779 16.1826 69.6317 16.7206L70.7602 16.3193C70.461 15.3884 69.5805 14.4575 67.9903 14.4575C66.3489 14.4575 64.887 15.6617 64.887 17.6173C64.887 19.573 66.2805 20.7686 67.9134 20.7686C68.8281 20.7686 69.4266 20.3587 69.7001 19.9488L69.7771 20.6405H70.7346ZM77.3238 20.6405V19.5303H74.7078V18.1297H77.0759V17.0793H74.7078V15.6958H77.3238V14.5856H73.528V20.6405H77.3238ZM84.6696 15.7044V14.5856H79.6513V15.7044H81.5663V20.6405H82.7546V15.7044H84.6696ZM92.0151 20.6405V14.5856H90.8182V20.6405H92.0151ZM99.4636 15.7044V14.5856H94.4453V15.7044H96.3603V20.6405H97.5486V15.7044H99.4636ZM106.476 17.6088C106.476 16.2424 107.433 15.5933 108.365 15.5933C109.305 15.5933 110.263 16.2424 110.263 17.6088C110.263 18.9752 109.305 19.6243 108.365 19.6243C107.433 19.6243 106.476 18.9752 106.476 17.6088ZM105.253 17.6173C105.253 19.5645 106.724 20.7686 108.365 20.7686C110.015 20.7686 111.485 19.5645 111.485 17.6173C111.485 15.6617 110.015 14.4575 108.365 14.4575C106.724 14.4575 105.253 15.6617 105.253 17.6173ZM119.284 20.6405V14.5856H118.104V18.5909L115.582 14.5856H114.111V20.6405H115.291V16.3449L118.044 20.6405H119.284Z" fill="#302F2F"/>
<path d="M30.4198 44.7563C29.7869 45.165 29.0266 45.2885 28.3134 45.1202L40.8455 32.6016L44.907 36.6588L30.4198 44.7563Z" fill="#F34234"/>
<path d="M26.7581 44.1028C26.4087 43.6387 26.2074 43.0687 26.2074 42.4658V20.1663C26.2074 19.5634 26.4087 18.9934 26.7581 18.5293L39.5585 31.316L26.7581 44.1028Z" fill="#0094FF"/>
<path d="M50.2081 33.6959L46.5577 35.7361L42.1326 31.3157L46.558 26.895L50.2087 28.9355C51.0833 29.4249 51.6054 30.3147 51.6054 31.3157C51.6054 32.3167 51.0833 33.2063 50.2081 33.6959Z" fill="#FCBA3D"/>
<path d="M40.8455 30.0307L28.3143 17.5128C28.5197 17.4644 28.7288 17.4385 28.9379 17.4385C29.4547 17.4385 29.9695 17.5853 30.42 17.8759L44.9073 25.9733L40.8455 30.0307Z" fill="#0DB15A"/>
</svg>
